<?xml version="1.0" encoding="UTF-8"?>
<svg id="Layer_1" data-name="Layer 1" xmlns="http://www.w3.org/2000/svg" viewBox="0 0 300 102.63">
  <defs>
    <style>
      .cls-1 {
        fill: #4eb748;
      }

      .cls-1, .cls-2, .cls-3, .cls-4, .cls-5, .cls-6, .cls-7, .cls-8, .cls-9, .cls-10 {
        stroke-width: 0px;
      }

      .cls-2 {
        fill: #231f20;
      }

      .cls-3 {
        fill: #a7a9ac;
      }

      .cls-4 {
        fill: #325caa;
      }

      .cls-5 {
        fill: #009d9b;
      }

      .cls-6 {
        fill: #fff;
      }

      .cls-7 {
        fill: #eb5823;
      }

      .cls-8 {
        fill: #fbac18;
      }

      .cls-9 {
        fill: #e6e7e8;
      }

      .cls-10 {
        fill: #00bef3;
      }
    </style>
  </defs>
  <g>
    <path class="cls-3" d="M291.11,2.51H6.63C2.97,2.51,0,5.48,0,9.14v7.87c0,4.66,3.78,8.44,8.44,8.44h5.98c2.97,0,5.38,2.41,5.38,5.38v63.52c0,4.57,3.71,8.28,8.28,8.28h263.04c3.66,0,6.63-2.97,6.63-6.63V9.14c0-3.66-2.97-6.63-6.63-6.63Z"/>
    <g>
      <path class="cls-9" d="M293.37,0H8.89C5.23,0,2.26,2.97,2.26,6.63v9.69c0,3.66,2.97,6.63,6.63,6.63h6.55c3.66,0,6.63,2.97,6.63,6.63v63.93c0,3.66,2.97,6.63,6.63,6.63h264.69c3.66,0,6.63-2.97,6.63-6.63V6.63C300,2.97,297.03,0,293.37,0Z"/>
      <g>
        <path class="cls-2" d="M88.28,6.61v9.19c0,1.68-1.36,3.04-3.04,3.04h-38.63c-1.68,0-3.04,1.36-3.04,3.04v71.63c0,1.68-1.36,3.04-3.04,3.04h-10.51c-1.68,0-3.04-1.36-3.04-3.04V21.88c0-1.68-1.36-3.04-3.04-3.04h-15.32c-1.68,0-3.04-1.36-3.04-3.04V6.61c0-1.68,1.36-3.04,3.04-3.04h76.63c1.68,0,3.04,1.36,3.04,3.04Z"/>
        <path class="cls-2" d="M106.63,96.55h-10.51c-1.68,0-3.04-1.06-3.04-2.38V26.29c0-1.31,1.36-2.38,3.04-2.38h10.51c1.68,0,3.04,1.06,3.04,2.38v67.89c0,1.31-1.36,2.38-3.04,2.38Z"/>
        <path class="cls-2" d="M106.63,19.16h-10.51c-1.68,0-3.04-1.06-3.04-2.38V5.94c0-1.31,1.36-2.38,3.04-2.38h10.51c1.68,0,3.04,1.06,3.04,2.38v10.85c0,1.31-1.36,2.38-3.04,2.38Z"/>
        <path class="cls-2" d="M178.31,96.55h-59.87c-1.68,0-3.04-1.36-3.04-3.04V6.61c0-1.68,1.36-3.04,3.04-3.04h10.51c1.68,0,3.04,1.36,3.04,3.04v71.63c0,1.68,1.36,3.04,3.04,3.04h43.28c1.68,0,3.04,1.36,3.04,3.04v9.19c0,1.68-1.36,3.04-3.04,3.04Z"/>
        <path class="cls-2" d="M234.63,96.55h-43.25c-1.68,0-3.04-1.36-3.04-3.04V6.61c0-1.68,1.36-3.04,3.04-3.04h41.93c1.68,0,3.04,1.36,3.04,3.04v9.19c0,1.68-1.36,3.04-3.04,3.04h-25.34c-1.68,0-3.04,1.36-3.04,3.04v7.72c0,1.68,1.36,3.04,3.04,3.04h20.42c1.68,0,3.04,1.36,3.04,3.04v9.19c0,1.68-1.36,3.04-3.04,3.04h-20.42c-1.68,0-3.04,1.36-3.04,3.04v27.28c0,1.68,1.36,3.04,3.04,3.04h26.66c1.68,0,3.04,1.36,3.04,3.04v9.19c0,1.68-1.36,3.04-3.04,3.04Z"/>
        <path class="cls-2" d="M295.41,81.28v-45.59c0-1.68-1.36-3.04-3.04-3.04h-26.66c-1.68,0-3.04-1.36-3.04-3.04v-7.72c0-1.68,1.36-3.04,3.04-3.04h25.34c1.68,0,3.04-1.36,3.04-3.04V6.61c0-1.68-1.36-3.04-3.04-3.04h-41.93c-1.68,0-3.04,1.36-3.04,3.04v38.27c0,1.68,1.36,3.04,3.04,3.04h26.66c1.68,0,3.04,1.36,3.04,3.04v27.28c0,1.68-1.36,3.04-3.04,3.04h-26.66c-1.68,0-3.04,1.36-3.04,3.04v9.2c0,1.68,1.36,3.04,3.04,3.04h43.25c1.68,0,3.04-1.36,3.04-3.04v-12.23h0Z"/>
        <g>
          <path class="cls-4" d="M86.96,88.73l-1.79-1.79v-54.72c0-2.86-2.32-5.19-5.19-5.19h-24.64l-1.78-1.78-3.04,3.04c-1.1.95-1.8,2.36-1.8,3.93v53.6c0,4.29,3.48,7.77,7.77,7.77h23.5c1.56,0,2.96-.69,3.91-1.78l3.07-3.07Z"/>
          <rect class="cls-10" x="51.83" y="23.91" width="36.45" height="66.55" rx="5.19" ry="5.19"/>
        </g>
        <g>
          <path class="cls-7" d="M180.03,72.05l-1.79-1.79V15.54c0-2.86-2.32-5.19-5.19-5.19h-29.19l-1.78-1.78-3.04,3.04c-1.1.95-1.8,2.36-1.8,3.93v53.6c0,4.29,3.48,7.77,7.77,7.77h28.05c1.56,0,2.96-.69,3.91-1.78l3.07-3.07Z"/>
          <rect class="cls-8" x="140.35" y="7.24" width="41" height="66.55" rx="5.19" ry="5.19"/>
        </g>
        <g>
          <path class="cls-5" d="M273.51,74.03l-1.44-1.44v-14.79c0-2.3-1.87-4.17-4.17-4.17h-53.99l-1.43-1.43-2.44,2.44c-.89.76-1.45,1.9-1.45,3.16v13.88c0,3.45,2.8,6.24,6.24,6.24h53.07c1.26,0,2.38-.56,3.15-1.43l2.46-2.46Z"/>
          <rect class="cls-1" x="211.09" y="51.13" width="63.48" height="24.3" rx="4.17" ry="4.17"/>
        </g>
      </g>
    </g>
  </g>
  <g>
    <rect class="cls-6" x="81.26" y="28.37" width="4.74" height="4.74" rx="2.37" ry="2.37"/>
    <rect class="cls-6" x="79.04" y="26.89" width="2.08" height="2.08" rx="1.04" ry="1.04"/>
    <rect class="cls-6" x="55.72" y="26.89" width="3.36" height="3.36" rx="1.68" ry="1.68"/>
    <rect class="cls-6" x="83.35" y="83.51" width="2.6" height="2.6" rx="1.3" ry="1.3"/>
    <rect class="cls-6" x="81.33" y="86.68" width="2.02" height="2.02" rx="1.01" ry="1.01"/>
  </g>
  <g>
    <rect class="cls-6" x="143.29" y="10.62" width="5.58" height="5.58" rx="2.79" ry="2.79"/>
    <rect class="cls-6" x="176.22" y="10.62" width="2.45" height="2.45" rx="1.22" ry="1.22"/>
    <rect class="cls-6" x="177.84" y="67.51" width="2.09" height="2.09" rx="1.04" ry="1.04"/>
    <rect class="cls-6" x="176.22" y="70.06" width="1.62" height="1.62" rx=".81" ry=".81"/>
  </g>
  <g>
    <rect class="cls-6" x="267.13" y="52.57" width="3.05" height="3.05" rx="1.53" ry="1.53"/>
    <rect class="cls-6" x="214.54" y="70.06" width="3.05" height="3.05" rx="1.53" ry="1.53"/>
    <rect class="cls-6" x="270.18" y="56.78" width="2.03" height="2.03" rx="1.01" ry="1.01"/>
  </g>
</svg>
