<?xml version="1.0" encoding="UTF-8"?>
<svg id="Layer_1" data-name="Layer 1" xmlns="http://www.w3.org/2000/svg" viewBox="0 0 180 180">
  <defs>
    <style>
      .cls-1 {
        fill: #231f20;
        stroke-width: 0px;
      }
    </style>
  </defs>
  <path class="cls-1" d="M89.28,180c-8.93,0-17.02-1.53-24.27-4.59-7.24-3.06-13.12-7.16-17.63-12.31-4.51-5.15-7.97-10.91-10.38-17.26-2.41-6.36-3.62-12.96-3.62-19.8h20.52c.64,9.9,4.06,18.15,10.26,24.75,6.2,6.6,14.65,9.9,25.35,9.9s19.32-3.04,25.84-9.11c6.52-6.08,9.78-14.51,9.78-25.29,0-9.18-3.18-16.62-9.54-22.33-6.36-5.71-14.73-8.57-25.11-8.57h-9.9v-17.99h9.9c9.34,0,16.82-2.64,22.45-7.91,5.63-5.27,8.45-12.29,8.45-21.07s-2.94-15.88-8.81-21.31-13.8-8.15-23.78-8.15c-9.26,0-16.94,2.82-23.06,8.45-6.12,5.63-9.62,12.8-10.5,21.49h-19.56c.4-13.84,5.53-25.45,15.39-34.83C60.93,4.69,73.5,0,88.79,0s28.47,4.43,38.33,13.28c9.86,8.85,14.79,19.92,14.79,33.2,0,8.53-2.39,16.34-7.18,23.42-4.79,7.08-10.36,12.27-16.72,15.57,8.37,3.14,15.23,8.29,20.58,15.45,5.35,7.16,8.03,15.69,8.03,25.59,0,15.29-5.27,28.03-15.81,38.21-10.54,10.18-24.39,15.27-41.53,15.27Z"/>
</svg>