<?xml version="1.0" encoding="UTF-8"?>
<svg id="Layer_1" data-name="Layer 1" xmlns="http://www.w3.org/2000/svg" viewBox="0 0 180 180">
  <defs>
    <style>
      .cls-1 {
        fill: #231f20;
        stroke-width: 0px;
      }
    </style>
  </defs>
  <path class="cls-1" d="M92.66,180c-8.69,0-17.14-1.27-25.35-3.8s-15.9-6.36-23.06-11.47c-7.16-5.11-13.42-11.21-18.77-18.29-5.35-7.08-9.58-15.47-12.68-25.17-3.1-9.7-4.65-20.14-4.65-31.33s1.55-21.63,4.65-31.33c3.1-9.7,7.34-18.09,12.74-25.17,5.39-7.08,11.65-13.16,18.77-18.23s14.81-8.87,23.06-11.41,16.68-3.8,25.29-3.8c13.44,0,25.75,2.56,36.94,7.67,11.19,5.11,20.5,12.52,27.95,22.21,7.44,9.7,12.21,20.99,14.31,33.86h-21.25c-3.14-13.76-10.1-24.63-20.89-32.6-10.78-7.97-23.14-11.95-37.06-11.95-8.13,0-15.94,1.55-23.42,4.65-7.48,3.1-14.23,7.53-20.22,13.28-6,5.75-10.76,13.2-14.31,22.33-3.54,9.13-5.31,19.3-5.31,30.48s1.77,21.35,5.31,30.48c3.54,9.13,8.31,16.58,14.31,22.33,6,5.75,12.74,10.18,20.22,13.28,7.48,3.1,15.29,4.65,23.42,4.65,14.25,0,26.68-3.98,37.3-11.95,10.62-7.97,17.51-18.91,20.64-32.84h21.25c-3.3,19.48-12.31,35.03-27.04,46.66-14.73,11.63-32.11,17.44-52.15,17.44Z"/>
</svg>