<?xml version="1.0" encoding="UTF-8"?>
<svg id="Layer_1" data-name="Layer 1" xmlns="http://www.w3.org/2000/svg" viewBox="0 0 180 180">
  <defs>
    <style>
      .cls-1 {
        fill: #231f20;
        stroke-width: 0px;
      }
    </style>
  </defs>
  <path class="cls-1" d="M93.75,60.04c17.22,0,30.78,5.54,40.66,16.61,9.88,11.07,14.83,25.43,14.83,43.06s-5.68,31.99-17.04,43.31c-11.36,11.32-25.86,16.98-43.49,16.98-11.65,0-21.96-2.58-30.94-7.75s-15.73-11.83-20.24-19.99c-4.51-8.16-6.77-17-6.77-26.51h21.16c.25,10.01,3.9,18.35,10.95,25.04,7.05,6.69,15.83,10.03,26.33,10.03,11.98,0,21.37-3.86,28.17-11.57,6.81-7.71,10.21-17.55,10.21-29.53s-3.36-21.82-10.09-29.53c-6.73-7.71-16.16-11.57-28.3-11.57-7.55,0-14.64,2.17-21.29,6.52-6.64,4.35-11.73,10.09-15.26,17.22h-20.42L41.83,0h100.52v19.19H60.04l-6.52,58.2c4.18-5.25,9.82-9.45,16.92-12.61,7.1-3.16,14.87-4.74,23.32-4.74Z"/>
</svg>