<?xml version="1.0" encoding="UTF-8"?>
<svg id="Layer_1" data-name="Layer 1" xmlns="http://www.w3.org/2000/svg" viewBox="0 0 180 180">
  <defs>
    <style>
      .cls-1 {
        fill: #231f20;
        stroke-width: 0px;
      }
    </style>
  </defs>
  <path class="cls-1" d="M143.74,180H36.5v-17.36l61.31-64.88c7.8-8.21,13.48-15.88,17.05-23.02,3.57-7.14,5.36-14.57,5.36-22.28,0-9.68-2.85-17.59-8.56-23.7-5.7-6.11-12.99-9.17-21.85-9.17-9.69,0-17.36,2.89-23.02,8.68s-8.86,13.4-9.6,22.84h-20.93c.74-15.02,5.89-27.29,15.45-36.81C61.27,4.76,74.14,0,90.31,0s28.05,4.76,37.37,14.28c9.32,9.52,13.97,21.71,13.97,36.57,0,10.59-2.32,20.48-6.96,29.67-4.64,9.19-11.63,18.92-20.99,29.18l-46.42,49.86h76.46v20.44Z"/>
</svg>