<?xml version="1.0" encoding="UTF-8"?>
<svg id="Layer_1" data-name="Layer 1" xmlns="http://www.w3.org/2000/svg" viewBox="0 0 180 180">
  <defs>
    <style>
      .cls-1 {
        fill: #231f20;
        stroke-width: 0px;
      }
    </style>
  </defs>
  <path class="cls-1" d="M91.51,180H31.88V0h61c14.31,0,25.79,4.06,34.46,12.18,8.66,8.12,12.99,18.37,12.99,30.75,0,9.12-2.36,16.9-7.09,23.35-4.73,6.45-10.56,11.09-17.51,13.93,10.13,3.85,18.05,9.75,23.79,17.7,5.73,7.95,8.6,17.82,8.6,29.62,0,15.23-5.42,27.78-16.26,37.66-10.84,9.87-24.29,14.81-40.36,14.81ZM53.97,19.58v53.22h36.53c8.2,0,14.96-2.34,20.27-7.03,5.31-4.69,7.97-11.25,7.97-19.71s-2.66-14.77-7.97-19.46c-5.31-4.69-12.07-7.03-20.27-7.03h-36.53ZM53.97,91.88v68.03h37.03c10.38,0,18.81-3.08,25.29-9.23s9.73-14.37,9.73-24.67-3.22-18.77-9.67-24.92-14.9-9.23-25.36-9.23h-37.03Z"/>
</svg>