<?xml version="1.0" encoding="UTF-8"?>
<svg id="Layer_1" data-name="Layer 1" xmlns="http://www.w3.org/2000/svg" viewBox="0 0 180 180">
  <defs>
    <style>
      .cls-1 {
        fill: #231f20;
        stroke-width: 0px;
      }
    </style>
  </defs>
  <path class="cls-1" d="M70.17,180H21.34V0h48.83c12.64,0,24.35,2.03,35.15,6.09,10.79,4.06,20.15,9.85,28.05,17.38s14.1,17.01,18.58,28.43,6.72,24.12,6.72,38.1-2.24,26.67-6.72,38.1-10.67,20.9-18.58,28.43-17.26,13.33-28.05,17.38c-10.79,4.06-22.51,6.09-35.15,6.09ZM43.43,20.08v139.83h25.23c13.14,0,24.75-2.59,34.83-7.78,10.08-5.19,18.12-13.12,24.1-23.79,5.98-10.67,8.97-23.45,8.97-38.35s-2.99-27.68-8.97-38.35c-5.98-10.67-14.02-18.6-24.1-23.79-10.08-5.19-21.69-7.78-34.83-7.78h-25.23Z"/>
</svg>