<?xml version="1.0" encoding="UTF-8"?>
<svg id="Layer_1" data-name="Layer 1" xmlns="http://www.w3.org/2000/svg" viewBox="0 0 144.88 56.8">
  <defs>
    <style>
      .cls-1 {
        fill: #c6e9f6;
      }

      .cls-1, .cls-2, .cls-3 {
        stroke-width: 0px;
      }

      .cls-2 {
        fill: #00bef3;
      }

      .cls-3 {
        fill: #02607a;
      }
    </style>
  </defs>
  <g>
    <path class="cls-3" d="M143.28,50.94l-2.17-2.17V10.03c0-3.46-2.81-6.27-6.27-6.27H8.01l-2.16-2.16-3.67,3.67C.85,6.43,0,8.13,0,10.03v37.38C0,52.59,4.2,56.8,9.39,56.8h125.45c1.89,0,3.58-.84,4.73-2.16l3.71-3.71Z"/>
    <rect class="cls-2" x="3.76" y="0" width="141.11" height="53.04" rx="6.27" ry="6.27"/>
  </g>
  <g>
    <rect class="cls-1" x="135.8" y="4.68" width="7.84" height="7.84" rx="3.92" ry="3.92"/>
    <rect class="cls-1" x="132.13" y="2.24" width="3.44" height="3.44" rx="1.72" ry="1.72"/>
    <rect class="cls-1" x="6.65" y="3.25" width="3.44" height="3.44" rx="1.72" ry="1.72"/>
    <rect class="cls-1" x="139.64" y="45.67" width="2.93" height="2.93" rx="1.47" ry="1.47"/>
    <rect class="cls-1" x="137.36" y="49.26" width="2.28" height="2.28" rx="1.14" ry="1.14"/>
  </g>
</svg>
